# xmcd
#
# Track frame offsets: 
#        182
#        17210
#        38515
#        59390
#        79460
#        96855
#        116307
#        134257
#        155007
#        179925
#        196410
#        219430
#        237330
#        258677
#        279185
#        299802
#        315650
#        329932
#
# Disc length: 4617 seconds
#
# Revision: 0
# Processed by: cddbd v1.5.2PL0 Copyright (c) Steve Scherf et al.
# Submitted via: ExactAudioCopy v1.3
#
DISCID=1d120712
DTITLE=Various Artist - PASSION Art'N Soul From Capitol Embracing Black Music
DTITLE='89
DYEAR=1989
DGENRE=Funk
TTITLE0=Bebe and Cece Winans - Celebrate New Life
TTITLE1=Freddie Hubbard - Times 'R Changin'
TTITLE2=Angela Bofill - Special Lover
TTITLE3=Ace Juice - Go-Go
TTITLE4=Oaktown's 3-5-7 - 3*5*7 Straight At You
TTITLE5=Freddie Jackson - Crazy (For Me)
TTITLE6=Paul Laurence - I Ain't Wit It
TTITLE7=Stanley Turrentine - Nite Breeze
TTITLE8=The Controllers - Just In Time
TTITLE9=Lou Rawls with Dianne Reeves - At Last
TTITLE10=Ashford and Simpson - Til We Get It Right
TTITLE11=Bebe and Cece Winans - Lost Without You
TTITLE12=Peabo Bryson - Show and Tell
TTITLE13=Lynch - Magic Spell
TTITLE14=Eliane Elias - Two Way Street
TTITLE15=M.C. Hammer - (Hammer, Hammer) They Put Me In The Mix
TTITLE16=M. Walk Productions Feat. Laurie and Angela - Get Off My Tip
TTITLE17=King Tee - Act A Fool
EXTD=
EXTT0=
EXTT1=
EXTT2=
EXTT3=
EXTT4=
EXTT5=
EXTT6=
EXTT7=
EXTT8=
EXTT9=
EXTT10=
EXTT11=
EXTT12=
EXTT13=
EXTT14=
EXTT15=
EXTT16=
EXTT17=
PLAYORDER=
